Coordinates
version=1
nRows=22
nColumns=24
inDegrees=yes

Units are S.I. units (second, meters, Newtons, ...)
Angles are in degrees.

endheader
time	pelvis_tilt	pelvis_list	pelvis_rotation	pelvis_tx	pelvis_ty	pelvis_tz	hip_flexion_r	hip_adduction_r	hip_rotation_r	knee_angle_r	ankle_angle_r	subtalar_angle_r	mtp_angle_r	hip_flexion_l	hip_adduction_l	hip_rotation_l	knee_angle_l	ankle_angle_l	subtalar_angle_l	mtp_angle_l	lumbar_extension	lumbar_bending	lumbar_rotation
      4.82500000	      9.33805602	     12.60001846	     17.69363580	      0.77547436	      0.73997112	     -0.29219602	     12.67838143	    -13.41283128	    -16.44697619	     -9.65573792	     16.16046214	     11.92727362	      0.00000000	    -23.33815229	      6.68894944	     12.18151453	    -30.38510032	     23.38028573	     20.62546656	      0.00000000	    -33.93908316	     -6.40910738	    -17.86516641
      4.83000000	      9.43945576	     12.19558517	     17.62448050	      0.78349287	      0.73973345	     -0.29191221	     12.73847742	    -12.81573498	    -15.83239968	    -10.76554504	     15.43627670	     10.65031348	      0.00000000	    -22.80880647	      6.24718128	     11.84379903	    -32.27869641	     22.04832470	     20.56426987	      0.00000000	    -33.75179329	     -6.08764704	    -17.35708480
      4.83500000	      9.53774458	     11.77408557	     17.53427996	      0.79147580	      0.73956329	     -0.29154859	     12.81973503	    -12.18652916	    -15.11858014	    -11.92230865	     14.78834620	      9.28325550	      0.00000000	    -22.19646903	      5.79931336	     11.47396272	    -34.23574400	     20.47986206	     20.47644119	      0.00000000	    -33.56912049	     -5.77246668	    -16.84973295
      4.84000000	      9.62995103	     11.31888452	     17.43999255	      0.79940368	      0.73946343	     -0.29116530	     12.90363622	    -11.51435742	    -14.37562961	    -13.07334702	     14.21303251	      7.93911910	      0.00000000	    -21.49644230	      5.33465565	     11.11327812	    -36.24859887	     18.73554316	     20.34168803	      0.00000000	    -33.38432665	     -5.42678381	    -16.32356409
      4.84500000	      9.73138812	     10.80282817	     17.34577585	      0.80726705	      0.73943531	     -0.29077863	     12.99154438	    -10.77849131	    -13.68329903	    -14.24285586	     13.69058828	      6.70123908	      0.00000000	    -20.72124507	      4.82140244	     10.75382915	    -38.30471773	     16.86499912	     20.06699813	      0.00000000	    -33.20172396	     -5.01526696	    -15.79374926
      4.85000000	      9.83047077	     10.25947561	     17.25803072	      0.81504664	      0.73948897	     -0.29036804	     13.06806521	    -10.00807600	    -13.01761553	    -15.38434125	     13.25875423	      5.56963113	      0.00000000	    -19.87120584	      4.28702901	     10.41473388	    -40.38148844	     14.87432060	     19.72748868	      0.00000000	    -33.03137824	     -4.57506027	    -15.28247426
      4.85500000	      9.93341596	      9.68117782	     17.18966828	      0.82275530	      0.73962172	     -0.28995715	     13.11831329	     -9.19814821	    -12.42268253	    -16.48753104	     12.95229930	      4.57431373	      0.00000000	    -18.95715946	      3.72211068	     10.12202902	    -42.46582527	     12.81177715	     19.29258998	      0.00000000	    -32.86822077	     -4.09249937	    -14.79424755
      4.86000000	     10.03525769	      9.08193464	     17.14484142	      0.83037180	      0.73983709	     -0.28954361	     13.13663140	     -8.36345765	    -11.89328016	    -17.53042056	     12.75637388	      3.72380491	      0.00000000	    -17.98305541	      3.13760149	      9.88065574	    -44.53479543	     10.72739178	     18.80317859	      0.00000000	    -32.71909666	     -3.57922606	    -14.35591819
      4.86500000	     10.14002820	      8.46156876	     17.14078575	      0.83791107	      0.74013233	     -0.28917351	     13.09735664	     -7.51064502	    -11.49927575	    -18.47736872	     12.73163074	      3.02924702	      0.00000000	    -16.96208328	      2.53982878	      9.73376442	    -46.57598020	      8.70443148	     18.21229369	      0.00000000	    -32.58190028	     -3.02612139	    -13.92679265
      4.87000000	     10.24480885	      7.83474421	     17.16906392	      0.84535559	      0.74050306	     -0.28881410	     13.00524117	     -6.64846310	    -11.18964690	    -19.32732255	     12.81517765	      2.47516329	      0.00000000	    -15.89163645	      1.94112142	      9.66309131	    -48.58430461	      6.78139059	     17.59790692	      0.00000000	    -32.45499127	     -2.45722450	    -13.55582606
      4.87500000	     10.39958930	      7.21485054	     17.21768907	      0.85270964	      0.74100212	     -0.28850703	     12.79842866	     -5.79432370	    -11.06101093	    -20.06750326	     13.00574833	      2.17990630	      0.00000000	    -14.84708856	      1.34464350	      9.64968248	    -50.52107288	      5.03321490	     16.92271398	      0.00000000	    -32.39924777	     -1.86266737	    -13.22209251
      4.88000000	     10.43584621	      6.59054217	     17.34659993	      0.85995896	      0.74145798	     -0.28822217	     12.63926231	     -4.94212855	    -10.87661320	    -20.65585341	     13.31843467	      1.72959633	      0.00000000	    -13.63194255	      0.79776216	      9.81570251	    -52.42093700	      3.52246269	     16.31919359	      0.00000000	    -32.22836453	     -1.28126387	    -12.95909778
      4.88500000	     10.59534817	      5.99328581	     17.43962421	      0.86715266	      0.74211881	     -0.28799368	     12.27513416	     -4.09693299	    -10.86915125	    -21.10014773	     13.69492140	      1.64604606	      0.00000000	    -12.55451745	      0.27168265	      9.98611893	    -54.19898219	      2.25147404	     15.64989005	      0.00000000	    -32.20268014	     -0.68816865	    -12.66804947
      4.89000000	     10.69680627	      5.41124600	     17.60832939	      0.87424065	      0.74278354	     -0.28782648	     11.89386532	     -3.27960430	    -10.93090325	    -21.40176691	     14.15396812	      1.51393497	      0.00000000	    -11.38362645	     -0.20431351	     10.28866001	    -55.92274118	      1.31528260	     15.00692518	      0.00000000	    -32.12832352	     -0.10256142	    -12.45591939
      4.89500000	     10.69133166	      4.85768144	     17.87536472	      0.88119171	      0.74338802	     -0.28770432	     11.56224388	     -2.52195527	    -11.08713551	    -21.59569399	     14.67432303	      1.28095217	      0.00000000	    -10.05629146	     -0.60711890	     10.74038977	    -57.61046611	      0.75136885	     14.52365804	      0.00000000	    -31.96124835	      0.45140363	    -12.35159274
      4.90000000	     10.76976941	      4.33912009	     18.09712566	      0.88812091	      0.74415638	     -0.28763675	     11.05164590	     -1.76620167	    -11.27695478	    -21.60520336	     15.21672761	      1.23950892	      0.00000000	     -8.84592520	     -0.95194573	     11.19824333	    -59.15403741	      0.46346023	     13.97923973	      0.00000000	    -31.88911811	      0.98772852	    -12.18108542
      4.90500000	     10.87185256	      3.85243760	     18.29695041	      0.89499848	      0.74500630	     -0.28759820	     10.44647617	     -1.02288562	    -11.46865021	    -21.47434402	     15.74970450	      1.27797193	      0.00000000	     -7.67115137	     -1.23806202	     11.65371110	    -60.58417319	      0.50118395	     13.39961591	      0.00000000	    -31.85502030	      1.49444336	    -11.99858764
      4.91000000	     10.94073827	      3.40508412	     18.56373120	      0.90179373	      0.74587344	     -0.28761628	      9.80059816	     -0.32738302	    -11.74785797	    -21.21000934	     16.29552526	      1.29566564	      0.00000000	     -6.45018660	     -1.45458330	     12.21047899	    -61.92606336	      0.83827716	     12.91918385	      0.00000000	    -31.79936409	      1.97351434	    -11.87067181
      4.91500000	     10.99718748	      3.00098351	     18.84158744	      0.90855060	      0.74678006	     -0.28766644	      9.09739707	      0.33169532	    -12.04747797	    -20.81659877	     16.83621045	      1.33338388	      0.00000000	     -5.22862986	     -1.59748776	     12.79636709	    -63.14939588	      1.43068593	     12.48780887	      0.00000000	    -31.74082975	      2.40667054	    -11.74635833
      4.92000000	     11.05962723	      2.64394708	     19.10459043	      0.91528061	      0.74772954	     -0.28774124	      8.32944676	      0.95785153	    -12.33190770	    -20.32103187	     17.36254619	      1.39099534	      0.00000000	     -4.03701660	     -1.66830517	     13.37194373	    -64.24333248	      2.24971717	     12.05315096	      0.00000000	    -31.69973790	      2.78941616	    -11.59984683
      4.92500000	     11.11789507	      2.32506927	     19.36669453	      0.92199443	      0.74871176	     -0.28783226	      7.50616140	      1.55671299	    -12.61707528	    -19.71439886	     17.85454841	      1.46519172	      0.00000000	     -2.86137866	     -1.68141622	     13.94369889	    -65.20606305	      3.25230761	     11.62757400	      0.00000000	    -31.66199280	      3.12908857	    -11.44736902
      4.93000000	     11.16968689	      2.04848570	     19.62980944	      0.92871453	      0.74971943	     -0.28792102	      6.62901150	      2.12645398	    -12.88641278	    -19.00076512	     18.30834785	      1.56224780	      0.00000000	     -1.70412798	     -1.64449339	     14.49508613	    -66.02898997	      4.39932148	     11.21769301	      0.00000000	    -31.62380709	      3.41824025	    -11.31593412
